<svg xmlns="http://www.w3.org/2000/svg" viewBox="0 0 320 320" role="img" aria-label="PyWiki">
  <!-- Versão do marketplace (icon.png): mesmo desenho sobre fundo gradiente. Regenerar com: rsvg-convert -w 320 -h 320 media/icon-store.svg -o media/icon.png -->
  <defs>
    <linearGradient id="bg" x1="0" y1="0" x2="1" y2="1">
      <stop offset="0" stop-color="#0f766e"/>
      <stop offset="1" stop-color="#312e81"/>
    </linearGradient>
    <linearGradient id="glow" x1="0" y1="0" x2="0" y2="1">
      <stop offset="0" stop-color="#ffffff" stop-opacity=".18"/>
      <stop offset="1" stop-color="#ffffff" stop-opacity="0"/>
    </linearGradient>
  </defs>
  <rect width="320" height="320" rx="64" fill="url(#bg)"/>
  <rect width="320" height="160" rx="64" fill="url(#glow)"/>
  <g transform="translate(24 28) scale(11.333)">
    <g fill="none" stroke="#f8fafc" stroke-width="1.5" stroke-linecap="round" stroke-linejoin="round">
      <path d="M2.6 5.6C5.6 4.3 9 4.6 12 6.7c3-2.1 6.4-2.4 9.4-1.1v13.2c-3-1.3-6.4-1-9.4 1.1-3-2.1-6.4-2.4-9.4-1.1Z"/>
      <path d="M12 6.7v13.2"/>
      <path d="M5.6 9.3c1.3-.4 2.5-.4 3.7 0M5.6 12.4c1.3-.4 2.5-.4 3.7 0M5.6 15.5c1.3-.4 2.5-.4 3.7 0"/>
      <path d="m15.4 10.4 3.3-1.2M15.4 10.4l1.6 3.6M18.7 9.2l-1.7 4.8"/>
    </g>
    <g fill="#5eead4">
      <circle cx="15.4" cy="10.4" r="1.2"/>
      <circle cx="18.7" cy="9.2" r="1.2"/>
      <circle cx="17" cy="14" r="1.2"/>
    </g>
  </g>
</svg>
